<svg width="77" height="50" viewBox="0 0 77 50" fill="none" xmlns="http://www.w3.org/2000/svg">
<path fill-rule="evenodd" clip-rule="evenodd" d="M73.5995 20.689C66.5742 12.348 56.649 6.96981 45.571 6.46403C45.6896 6.45496 45.8093 6.44588 45.9291 6.43681C40.1735 2.20737 34.2483 0.23753 28.1541 0.527846C27.4327 0.686046 26.7944 1.34493 26.9359 2.48975C27.1187 3.96912 27.7479 6.37217 28.3117 9.80834C24.1472 11.7062 20.3358 14.3428 17.0142 17.5692C16.1863 18.3727 14.5017 19.2924 13.5207 18.3466C9.32023 14.2963 5.40391 11.8031 1.77121 10.867C0.196088 10.8114 -0.32819 11.6472 0.197806 13.3755C2.13677 20.7071 2.13677 29.4835 0.197806 36.8146C-0.32819 38.5429 0.196088 39.3792 1.77121 39.3231C5.40735 38.3864 9.32825 35.8886 13.5334 31.8316C14.2324 31.158 15.2586 31.433 16.0997 31.9342L25.5946 22.538L27.0408 23.9698L33.6077 30.4685L43.9036 20.2785H34.3996V16.2305H50.8871V32.5466H46.7966V23.1408L33.6077 36.1926L32.1609 34.762L25.5946 28.2633L19.1984 34.5924C23.5456 38.2554 28.5919 40.976 34.0839 42.4661C33.9727 44.9962 33.7578 46.8226 33.767 47.9714C33.775 48.9563 34.3893 49.4451 35.0173 49.5001C39.8131 49.1128 44.2715 47.1089 48.3923 43.4896C58.3484 42.2739 67.2113 37.1066 73.6378 29.4557C77.4757 24.8867 77.4522 25.2632 73.5995 20.689ZM57.6712 16.2305C55.3833 23.2156 56.241 30.3823 60.2009 35.1294C53.9703 31.4738 52.1706 23.5451 57.6712 16.2305ZM67.3992 25.4401C66.1427 25.4401 65.1239 24.4319 65.1239 23.1884C65.1239 21.9444 66.1427 20.9362 67.3992 20.9362C68.6558 20.9362 69.6745 21.9444 69.6745 23.1884C69.6745 24.4319 68.6558 25.4401 67.3992 25.4401Z" fill="#99BA3F"/>
</svg>
