<svg width="196" height="49" viewBox="0 0 196 49" fill="none" xmlns="http://www.w3.org/2000/svg">
<path d="M90.2002 9.74747H94.4265V20.4221H98.3188V9.74747H102.526V6.66083H90.2002V9.74747Z" fill="white"/>
<rect x="107.735" y="6.66089" width="3.89226" height="13.7613" fill="white"/>
<path d="M128.572 17.3356H122.026V6.66095H118.134V20.4222H128.572V17.3356Z" fill="white"/>
<path d="M138.264 6.66064L132.189 20.4219H136.16L137.241 17.7289H143.061L144.142 20.4219H148.191L142.097 6.66064H138.264ZM138.385 14.8783L140.151 10.4778L141.917 14.8783H138.385Z" fill="white"/>
<path d="M144.652 2.57239H140.898L138.283 5.541H140.917L144.652 2.57239Z" fill="white"/>
<mask id="mask0_1_385" style="mask-type:alpha" maskUnits="userSpaceOnUse" x="0" y="0" width="196" height="49">
<rect width="196" height="49" fill="white"/>
</mask>
<g mask="url(#mask0_1_385)">
<path d="M165.432 11.6113C165.432 10.5872 165.186 9.69474 164.694 8.93606C164.203 8.17738 163.499 7.59731 162.581 7.19473C161.663 6.79327 160.576 6.59198 159.318 6.59198H153.047V20.2096H156.939V16.6499H159.318C160.576 16.6499 161.663 16.4457 162.581 16.0369C163.499 15.6281 164.203 15.0514 164.694 14.3052C165.186 13.5601 165.432 12.662 165.432 11.6113ZM160.91 13.0799C160.504 13.4235 159.895 13.5953 159.082 13.5953H156.939V9.6267H159.082C159.895 9.6267 160.504 9.80531 160.91 10.162C161.316 10.5186 161.52 11.0017 161.52 11.6113C161.52 12.2464 161.316 12.7368 160.91 13.0799Z" fill="white"/>
<rect x="171.271" y="6.59167" width="3.89226" height="13.6182" fill="white"/>
<path d="M191.95 20.2097H196L189.906 6.59143H186.072L179.998 20.2097H183.969L185.05 17.5446H190.87L191.95 20.2097ZM186.194 14.7237L187.96 10.3689L189.726 14.7237H186.194Z" fill="white"/>
<path d="M95.1913 28.148L90.1055 39.2617H91.7579L92.9916 36.4827H98.9626L100.196 39.2617H101.881L96.779 28.148H95.1913ZM93.5554 35.2131L95.9768 29.7595L98.3988 35.2131H93.5554Z" fill="white"/>
<path d="M108.547 30.6407C108.948 30.2596 109.424 29.9636 109.975 29.7516C110.526 29.5401 111.122 29.434 111.764 29.434C112.395 29.434 112.98 29.5372 113.521 29.7436C114.061 29.95 114.561 30.2755 115.021 30.72L116.016 29.7357C115.502 29.1641 114.876 28.7354 114.138 28.4497C113.4 28.1639 112.587 28.021 111.7 28.021C110.823 28.021 110.02 28.1616 109.293 28.4417C108.566 28.7224 107.933 29.1193 107.392 29.6325C106.852 30.1462 106.432 30.7467 106.133 31.4345C105.833 32.1223 105.684 32.8793 105.684 33.7049C105.684 34.5304 105.833 35.2874 106.133 35.9752C106.432 36.6636 106.849 37.2641 107.384 37.7772C107.919 38.2909 108.55 38.6873 109.277 38.9685C110.004 39.2487 110.801 39.3887 111.668 39.3887C112.459 39.3887 113.226 39.2696 113.97 39.0315C114.713 38.7933 115.364 38.4418 115.919 37.9762V33.6413H114.379V37.2516C114.09 37.4398 113.788 37.5918 113.473 37.6978C112.922 37.8827 112.347 37.9762 111.748 37.9762C111.106 37.9762 110.513 37.8702 109.967 37.6581C109.422 37.4466 108.948 37.1478 108.547 36.7611C108.146 36.375 107.836 35.9202 107.617 35.3957C107.397 34.8718 107.288 34.3082 107.288 33.7049C107.288 33.0908 107.397 32.522 107.617 31.9987C107.836 31.4742 108.146 31.0217 108.547 30.6407Z" fill="white"/>
<path d="M123.636 34.2924H129.267V32.9429H123.636V29.5294H129.957V28.1481H122.031V39.2618H130.182V37.8805H123.636V34.2924Z" fill="white"/>
<path d="M143.883 36.4292L137.144 28.1484H135.828V39.2615H137.433V30.9807L144.171 39.2615H145.487V28.1484H143.883V36.4292Z" fill="white"/>
<path d="M153.846 30.6407C154.241 30.2596 154.709 29.9636 155.249 29.7516C155.789 29.5401 156.375 29.434 157.007 29.434C157.616 29.434 158.188 29.5423 158.723 29.7595C159.257 29.9767 159.739 30.3072 160.167 30.7518L161.21 29.7516C160.697 29.18 160.073 28.7491 159.341 28.4576C158.608 28.1667 157.809 28.021 156.942 28.021C156.086 28.021 155.297 28.1616 154.575 28.4417C153.854 28.7224 153.225 29.1193 152.69 29.6325C152.156 30.1462 151.739 30.7467 151.439 31.4345C151.139 32.1223 150.99 32.8793 150.99 33.7049C150.99 34.5304 151.139 35.2874 151.439 35.9752C151.739 36.6636 152.153 37.2641 152.683 37.7772C153.212 38.2909 153.837 38.6873 154.56 38.9685C155.282 39.2487 156.07 39.3887 156.926 39.3887C157.803 39.3887 158.608 39.2407 159.341 38.9447C160.073 38.6482 160.697 38.2138 161.21 37.6423L160.167 36.642C159.739 37.0974 159.257 37.4336 158.723 37.6502C158.188 37.8674 157.616 37.9762 157.007 37.9762C156.375 37.9762 155.789 37.8702 155.249 37.6581C154.709 37.4466 154.241 37.1501 153.846 36.7691C153.45 36.388 153.142 35.9355 152.923 35.4116C152.704 34.8877 152.594 34.3189 152.594 33.7049C152.594 33.0908 152.704 32.522 152.923 31.9987C153.142 31.4742 153.45 31.0217 153.846 30.6407Z" fill="white"/>
<path d="M173.563 28.1481L169.954 34.0112L166.36 28.1481H164.643L169.103 35.3924V39.2618H170.691V35.4168L175.151 28.1481H173.563Z" fill="white"/>
<path fill-rule="evenodd" clip-rule="evenodd" d="M73.5992 20.1887C66.5739 11.8477 56.6487 6.46951 45.5707 5.96372C45.6893 5.95465 45.8091 5.94558 45.9289 5.93651C40.1733 1.70707 34.2481 -0.262775 28.1539 0.0275412C27.4325 0.185741 26.7942 0.844624 26.9357 1.98945C27.1185 3.46881 27.7476 5.87186 28.3114 9.30803C24.147 11.2059 20.3355 13.8425 17.014 17.0689C16.186 17.8724 14.5014 18.7921 13.5205 17.8463C9.31999 13.796 5.40366 11.3028 1.77097 10.3667C0.195843 10.3111 -0.328434 11.1469 0.197562 12.8752C2.13653 20.2068 2.13653 28.9832 0.197562 36.3143C-0.328434 38.0426 0.195843 38.8789 1.77097 38.8228C5.4071 37.8861 9.32801 35.3883 13.5331 31.3313C14.2321 30.6576 15.2584 30.9327 16.0995 31.4339L25.5943 22.0377L27.0406 23.4695L33.6075 29.9681L43.9034 19.7781H34.3993V15.7302H50.8869V32.0463H46.7963V22.6405L33.6075 35.6923L32.1607 34.2617L25.5943 27.763L19.1982 34.0921C23.5454 37.7551 28.5916 40.4757 34.0836 41.9658C33.9725 44.4959 33.7576 46.3223 33.7668 47.4711C33.7748 48.456 34.389 48.9448 35.017 48.9998C39.8129 48.6125 44.2712 46.6086 48.3921 42.9893C58.3482 41.7736 67.2111 36.6063 73.6376 28.9554C77.4754 24.3864 77.4519 24.7629 73.5992 20.1887ZM57.6709 15.7302C55.383 22.7153 56.2408 29.882 60.2007 34.6291C53.9701 30.9735 52.1703 23.0448 57.6709 15.7302ZM67.399 24.9398C66.1424 24.9398 65.1237 23.9316 65.1237 22.6881C65.1237 21.4441 66.1424 20.4359 67.399 20.4359C68.6555 20.4359 69.6743 21.4441 69.6743 22.6881C69.6743 23.9316 68.6555 24.9398 67.399 24.9398Z" fill="white"/>
</g>
</svg>
