<svg width="41" height="28" viewBox="0 0 41 28" fill="none" xmlns="http://www.w3.org/2000/svg">
<path d="M4.24805 4C4.24805 1.79375 6.0418 0 8.24805 0H32.248C34.4543 0 36.248 1.79375 36.248 4V20H32.248V4H8.24805V20H4.24805V4ZM0.248047 23.2C0.248047 22.5375 0.785547 22 1.44805 22H39.048C39.7105 22 40.248 22.5375 40.248 23.2C40.248 25.85 38.098 28 35.448 28H5.04805C2.39805 28 0.248047 25.85 0.248047 23.2ZM17.8105 11.0625L15.873 13L17.8105 14.9375C18.398 15.525 18.398 16.475 17.8105 17.0562C17.223 17.6375 16.273 17.6437 15.6918 17.0562L12.6918 14.0562C12.1043 13.4688 12.1043 12.5187 12.6918 11.9375L15.6918 8.9375C16.2793 8.35 17.2293 8.35 17.8105 8.9375C18.3918 9.525 18.398 10.475 17.8105 11.0562V11.0625ZM24.8105 8.9375L27.8105 11.9375C28.398 12.525 28.398 13.475 27.8105 14.0562L24.8105 17.0562C24.223 17.6437 23.273 17.6437 22.6918 17.0562C22.1105 16.4688 22.1043 15.5187 22.6918 14.9375L24.6293 13L22.6918 11.0625C22.1043 10.475 22.1043 9.525 22.6918 8.94375C23.2793 8.3625 24.2293 8.35625 24.8105 8.94375V8.9375Z" fill="#99BA3F"/>
</svg>
