<svg width="33" height="32" viewBox="0 0 33 32" fill="none" xmlns="http://www.w3.org/2000/svg">
<path d="M31.3404 4.5553C32.3818 3.51382 32.3818 1.8225 31.3404 0.781035C30.2989 -0.260427 28.6076 -0.260427 27.5661 0.781035L0.904633 27.4425C-0.136831 28.484 -0.136831 30.1753 0.904633 31.2168C1.9461 32.2582 3.63743 32.2582 4.6789 31.2168L31.3404 4.5553ZM10.7944 5.33848C10.7944 2.39353 8.40702 0.00618649 5.46207 0.00618649C2.51713 0.00618649 0.129782 2.39353 0.129782 5.33848C0.129782 8.28342 2.51713 10.6708 5.46207 10.6708C8.40702 10.6708 10.7944 8.28342 10.7944 5.33848ZM32.1235 26.6676C32.1235 23.7227 29.7362 21.3354 26.7912 21.3354C23.8463 21.3354 21.459 23.7227 21.459 26.6676C21.459 29.6126 23.8463 31.9999 26.7912 31.9999C29.7362 31.9999 32.1235 29.6126 32.1235 26.6676Z" fill="#99BA3F"/>
</svg>
