<svg width="25" height="24" viewBox="0 0 25 24" fill="none" xmlns="http://www.w3.org/2000/svg">
<path d="M24.095 12.0447C24.095 5.39188 18.7031 0 12.0503 0C5.3975 0 0.00561523 5.39188 0.00561523 12.0447C0.00561523 17.6906 3.89662 22.4332 9.14265 23.7365V15.724H6.65843V12.0447H9.14265V10.4591C9.14265 6.36111 10.9964 4.4603 15.0238 4.4603C15.7861 4.4603 17.1034 4.61086 17.6445 4.76142V8.09253C17.3622 8.0643 16.8682 8.04548 16.2518 8.04548C14.2758 8.04548 13.5136 8.79357 13.5136 10.7367V12.0447H17.4469L16.7694 15.724H13.5088V24C19.4747 23.2801 24.095 18.2035 24.095 12.0447Z" fill="white"/>
</svg>
