<svg width="24" height="24" viewBox="0 0 24 24" fill="none" xmlns="http://www.w3.org/2000/svg">
<path d="M12.0056 5.8467C8.5996 5.8467 5.8523 8.594 5.8523 12C5.8523 15.406 8.5996 18.1533 12.0056 18.1533C15.4116 18.1533 18.1589 15.406 18.1589 12C18.1589 8.594 15.4116 5.8467 12.0056 5.8467ZM12.0056 16.0004C9.80455 16.0004 8.00515 14.2064 8.00515 12C8.00515 9.7936 9.7992 7.99955 12.0056 7.99955C14.212 7.99955 16.006 9.7936 16.006 12C16.006 14.2064 14.2066 16.0004 12.0056 16.0004ZM19.8458 5.595C19.8458 6.39295 19.2032 7.03023 18.4106 7.03023C17.6127 7.03023 16.9754 6.3876 16.9754 5.595C16.9754 4.80241 17.618 4.15977 18.4106 4.15977C19.2032 4.15977 19.8458 4.80241 19.8458 5.595ZM23.9213 7.05166C23.8302 5.12908 23.3911 3.42608 21.9826 2.02298C20.5795 0.61988 18.8765 0.180739 16.9539 0.0843458C14.9725 -0.0281153 9.03338 -0.0281153 7.0519 0.0843458C5.13469 0.175384 3.43168 0.614524 2.02323 2.01762C0.614771 3.42073 0.180987 5.12373 0.0845909 7.0463C-0.0278714 9.02778 -0.0278714 14.9669 0.0845909 16.9483C0.175632 18.8709 0.614771 20.5739 2.02323 21.977C3.43168 23.3801 5.12933 23.8193 7.0519 23.9157C9.03338 24.0281 14.9725 24.0281 16.9539 23.9157C18.8765 23.8246 20.5795 23.3855 21.9826 21.977C23.3857 20.5739 23.8249 18.8709 23.9213 16.9483C24.0337 14.9669 24.0337 9.03313 23.9213 7.05166ZM21.3614 19.0744C20.9437 20.1241 20.135 20.9327 19.08 21.3558C17.5002 21.9824 13.7514 21.8378 12.0056 21.8378C10.2598 21.8378 6.50565 21.977 4.93118 21.3558C3.88153 20.9381 3.07287 20.1294 2.6498 19.0744C2.02323 17.4946 2.16782 13.7458 2.16782 12C2.16782 10.2542 2.02858 6.50005 2.6498 4.92558C3.06752 3.87593 3.87618 3.06728 4.93118 2.6442C6.51101 2.01762 10.2598 2.16222 12.0056 2.16222C13.7514 2.16222 17.5055 2.02298 19.08 2.6442C20.1297 3.06192 20.9383 3.87058 21.3614 4.92558C21.988 6.50541 21.8434 10.2542 21.8434 12C21.8434 13.7458 21.988 17.4999 21.3614 19.0744Z" fill="white"/>
</svg>
