<svg width="29" height="20" viewBox="0 0 29 20" fill="none" xmlns="http://www.w3.org/2000/svg">
<path d="M27.9491 3.1302C27.621 1.89583 26.6575 0.927086 25.4335 0.598946C23.2148 0 14.3189 0 14.3189 0C14.3189 0 5.42309 0 3.20434 0.598946C1.98039 0.927086 1.01685 1.89583 0.688722 3.1302C0.0949707 5.36457 0.0949707 10.0208 0.0949707 10.0208C0.0949707 10.0208 0.0949707 14.6771 0.688722 16.9115C1.01685 18.1458 1.98039 19.0729 3.20434 19.401C5.42309 20 14.3189 20 14.3189 20C14.3189 20 23.2148 20 25.4335 19.401C26.6575 19.0729 27.621 18.1406 27.9491 16.9115C28.5429 14.6771 28.5429 10.0208 28.5429 10.0208C28.5429 10.0208 28.5429 5.36457 27.9491 3.1302ZM11.4127 14.25V5.79166L18.845 10.0208L11.4127 14.25Z" fill="white"/>
</svg>
