<svg width="28" height="24" viewBox="0 0 28 24" fill="none" xmlns="http://www.w3.org/2000/svg">
<path d="M0 1.99999C0 0.893745 0.89375 0 2 0H26C27.1062 0 28 0.893745 28 1.99999C28 3.10625 27.1062 4 26 4H2C0.89375 4 0 3.10625 0 1.99999ZM0 12C0 10.8938 0.89375 10 2 10H26C27.1062 10 28 10.8938 28 12C28 13.1062 27.1062 14 26 14H2C0.89375 14 0 13.1062 0 12ZM28 22C28 23.1062 27.1062 24 26 24H2C0.89375 24 0 23.1062 0 22C0 20.8937 0.89375 20 2 20H26C27.1062 20 28 20.8937 28 22Z" fill="#A3A3A3"/>
</svg>
