<svg width="33" height="32" viewBox="0 0 33 32" fill="none" xmlns="http://www.w3.org/2000/svg">
<path d="M30.2463 2.00325C30.2463 1.19709 29.7588 0.465921 29.0089 0.153455C28.259 -0.159011 27.4028 0.01597 26.8279 0.584658L24.1032 3.31561C21.1035 6.31529 17.0352 8.0026 12.7919 8.0026H12.2482H10.2484H4.24908C2.04307 8.0026 0.249512 9.79616 0.249512 12.0022V18.0015C0.249512 20.2075 2.04307 22.0011 4.24908 22.0011V30.0002C4.24908 31.1063 5.14273 32 6.24886 32H10.2484C11.3546 32 12.2482 31.1063 12.2482 30.0002V22.0011H12.7919C17.0352 22.0011 21.1035 23.6884 24.1032 26.6881L26.8279 29.4128C27.4028 29.9877 28.259 30.1564 29.0089 29.844C29.7588 29.5315 30.2463 28.8066 30.2463 27.9942V18.7702C31.4086 18.2202 32.246 16.7392 32.246 14.9956C32.246 13.252 31.4086 11.7709 30.2463 11.221V2.00325ZM26.2467 6.79648V15.0018V23.2072C22.5721 19.8638 17.7789 18.0015 12.7919 18.0015H12.2482V12.0022H12.7919C17.7789 12.0022 22.5721 10.1399 26.2467 6.79648Z" fill="#99BA3F"/>
</svg>
