<svg width="40" height="40" viewBox="0 0 40 40" fill="none" xmlns="http://www.w3.org/2000/svg">
<path d="M0 20C0 8.9543 8.95431 -2.38419e-06 20 0C31.0457 0 40 8.95431 40 20C40 31.0457 31.0457 40 20 40C8.95431 40 1.19209e-06 31.0457 0 20ZM14.7109 11.4922C14.1172 11.8203 13.75 12.4531 13.75 13.125V26.875C13.75 27.5547 14.1172 28.1797 14.7109 28.5078C15.3047 28.8359 16.0234 28.8281 16.6094 28.4688L27.8594 21.5938C28.4141 21.25 28.7578 20.6484 28.7578 19.9922C28.7578 19.3359 28.4141 18.7344 27.8594 18.3906L16.6094 11.5156C16.0312 11.1641 15.3047 11.1484 14.7109 11.4766V11.4922Z" fill="white"/>
</svg>
