<svg width="41" height="32" viewBox="0 0 41 32" fill="none" xmlns="http://www.w3.org/2000/svg">
<path d="M25.387 0.0783053C24.3247 -0.22788 23.2187 0.390739 22.9125 1.45301L14.9142 29.4471C14.608 30.5094 15.2266 31.6154 16.2889 31.9216C17.3512 32.2278 18.4572 31.6091 18.7634 30.5469L26.7617 2.55278C27.0679 1.49051 26.4493 0.38449 25.387 0.0783053ZM30.4234 7.58297C29.6423 8.36405 29.6423 9.63254 30.4234 10.4136L36.0035 15.9999L30.4172 21.5863C29.6361 22.3673 29.6361 23.6358 30.4172 24.4169C31.1983 25.198 32.4668 25.198 33.2478 24.4169L40.2464 17.4184C41.0274 16.6373 41.0274 15.3688 40.2464 14.5877L33.2478 7.58922C32.4668 6.80813 31.1983 6.80813 30.4172 7.58922L30.4234 7.58297ZM11.2587 7.58297C10.4777 6.80188 9.20917 6.80188 8.42808 7.58297L1.42956 14.5815C0.648479 15.3626 0.648479 16.6311 1.42956 17.4121L8.42808 24.4107C9.20917 25.1917 10.4777 25.1917 11.2587 24.4107C12.0398 23.6296 12.0398 22.3611 11.2587 21.58L5.67242 15.9999L11.2587 10.4136C12.0398 9.63254 12.0398 8.36405 11.2587 7.58297Z" fill="#99BA3F"/>
</svg>
