<svg width="18" height="12" viewBox="0 0 18 12" fill="none" xmlns="http://www.w3.org/2000/svg">
<path d="M2.71401 0.85714C2.71401 0.383034 3.09704 0 3.57115 0H12.1426H13.8569C15.7506 0 17.2854 1.53482 17.2854 3.42857C17.2854 5.32232 15.7506 6.85714 13.8569 6.85714H12.9997C12.9997 8.27678 11.8479 9.42857 10.4283 9.42857H5.28544C3.86579 9.42857 2.71401 8.27678 2.71401 6.85714V0.85714ZM12.9997 5.14286H13.8569C14.8024 5.14286 15.5711 4.37411 15.5711 3.42857C15.5711 2.48304 14.8024 1.71428 13.8569 1.71428H12.9997V5.14286ZM0.999721 10.2857H14.714C15.1881 10.2857 15.5711 10.6687 15.5711 11.1429C15.5711 11.617 15.1881 12 14.714 12H0.999721C0.525614 12 0.142578 11.617 0.142578 11.1429C0.142578 10.6687 0.525614 10.2857 0.999721 10.2857Z" fill="white"/>
</svg>
