<svg width="33" height="32" viewBox="0 0 33 32" fill="none" xmlns="http://www.w3.org/2000/svg">
<path d="M23.0957 1.03457L19.5873 4.54927L27.4733 12.4353L30.9818 8.92691C32.3612 7.54748 32.3612 5.31772 30.9818 3.9383L28.0843 1.03457C26.7049 -0.344857 24.4751 -0.344857 23.0957 1.03457ZM18.0315 5.84052L17.452 6.01688L8.37553 8.73794C7.12208 9.11587 6.12687 10.0733 5.71116 11.3204L0.130463 27.9617C-0.10889 28.6735 0.0674754 29.4671 0.590272 30.0025L10.2652 20.3339C10.0762 19.9371 9.96911 19.4962 9.96911 19.0301C9.96911 17.3609 11.3233 16.0067 12.9925 16.0067C14.6617 16.0067 16.0159 17.3609 16.0159 19.0301C16.0159 20.6993 14.6617 22.0535 12.9925 22.0535C12.5264 22.0535 12.0855 21.9464 11.6887 21.7575L2.01379 31.4323C2.55548 31.9551 3.34283 32.1378 4.05459 31.8922L20.7022 26.3115C21.943 25.8957 22.9067 24.9005 23.2847 23.6471L26.0057 14.5706L26.1758 13.9911L18.0315 5.84052Z" fill="#99BA3F"/>
</svg>
