<svg width="25" height="24" viewBox="0 0 25 24" fill="none" xmlns="http://www.w3.org/2000/svg">
<path d="M23.9928 4.09869C24.9299 3.16164 24.9299 1.63985 23.9928 0.702805C23.0558 -0.234268 21.534 -0.234268 20.5969 0.702805L12.7031 8.60408L4.80183 0.710297C3.86477 -0.226776 2.34298 -0.226776 1.40592 0.710297C0.468859 1.64734 0.468859 3.16913 1.40592 4.1062L9.30721 12L1.41342 19.9013C0.476358 20.8383 0.476358 22.3601 1.41342 23.2972C2.35048 24.2343 3.87227 24.2343 4.80932 23.2972L12.7031 15.3959L20.6044 23.2897C21.5415 24.2268 23.0633 24.2268 24.0003 23.2897C24.9374 22.3526 24.9374 20.8309 24.0003 19.8938L16.099 12L23.9928 4.09869Z" fill="#A3A3A3"/>
</svg>
