<svg width="25" height="24" viewBox="0 0 25 24" fill="none" xmlns="http://www.w3.org/2000/svg">
<path d="M24.1413 4.09869C25.0783 3.16164 25.0783 1.63985 24.1413 0.702805C23.2042 -0.234268 21.6824 -0.234268 20.7454 0.702805L12.8516 8.60408L4.95027 0.710297C4.0132 -0.226776 2.49142 -0.226776 1.55436 0.710297C0.617296 1.64734 0.617296 3.16913 1.55436 4.1062L9.45565 12L1.56186 19.9013C0.624796 20.8383 0.624796 22.3601 1.56186 23.2972C2.49892 24.2343 4.0207 24.2343 4.95776 23.2972L12.8516 15.3959L20.7529 23.2897C21.6899 24.2268 23.2117 24.2268 24.1488 23.2897C25.0858 22.3526 25.0858 20.8309 24.1488 19.8938L16.2475 12L24.1413 4.09869Z" fill="white"/>
</svg>
