<svg width="512" height="512" viewBox="0 0 512 512" fill="none" xmlns="http://www.w3.org/2000/svg">
<g clip-path="url(#clip0_1_1160)">
<rect width="512" height="512" fill="white"/>
<path d="M0 64C0 28.6538 28.6538 0 64 0H448C483.346 0 512 28.6538 512 64V448C512 483.346 483.346 512 448 512H64C28.6538 512 0 483.346 0 448V64Z" fill="#99BA3F"/>
<path fill-rule="evenodd" clip-rule="evenodd" d="M433.412 234.334C398.151 192.469 348.334 165.474 292.731 162.936C293.326 162.89 293.927 162.844 294.528 162.799C265.639 141.57 235.899 131.683 205.311 133.14C201.69 133.934 198.486 137.242 199.197 142.988C200.114 150.413 203.272 162.474 206.102 179.721C185.2 189.247 166.069 202.481 149.397 218.675C145.242 222.708 136.786 227.324 131.863 222.577C110.779 202.248 91.1223 189.734 72.8889 185.035C64.983 184.756 62.3515 188.951 64.9916 197.626C74.7238 234.425 74.7238 278.476 64.9916 315.272C62.3515 323.947 64.983 328.145 72.8889 327.863C91.1396 323.162 110.82 310.625 131.926 290.261C135.435 286.88 140.585 288.261 144.807 290.777L192.464 243.615L199.723 250.801L232.684 283.42L284.362 232.273H236.659V211.956H319.414V293.85H298.882V246.64L232.684 312.15L225.422 304.97L192.464 272.351L160.36 304.119C182.18 322.504 207.508 336.159 235.074 343.639C234.516 356.338 233.438 365.505 233.484 371.271C233.524 376.215 236.607 378.668 239.759 378.944C263.83 377 286.208 366.942 306.892 348.776C356.864 342.674 401.349 316.738 433.605 278.337C452.868 255.403 452.75 257.293 433.412 234.334ZM353.465 211.956C341.981 247.016 346.286 282.987 366.162 306.814C334.889 288.466 325.856 248.669 353.465 211.956ZM402.292 258.181C395.985 258.181 390.872 253.121 390.872 246.879C390.872 240.635 395.985 235.575 402.292 235.575C408.599 235.575 413.712 240.635 413.712 246.879C413.712 253.121 408.599 258.181 402.292 258.181Z" fill="white"/>
</g>
<defs>
<clipPath id="clip0_1_1160">
<rect width="512" height="512" fill="white"/>
</clipPath>
</defs>
</svg>
